<svg width="31" height="36" viewBox="0 0 31 36" fill="none" xmlns="http://www.w3.org/2000/svg">
<path opacity="0.06" d="M11.0813 15.3529C11.8607 16.2941 12.4538 17.5 12.8604 18.9706C13.2671 20.3824 13.4704 21.9706 13.4704 23.7353C13.4704 27.3824 12.7757 30.3529 11.3863 32.6471C9.99691 34.8824 8.28558 36 6.25231 36C4.38848 36 2.88047 35.0294 1.72828 33.0882C0.576093 31.1471 0 28.6176 0 25.5C0 23.9118 0.169439 22.3824 0.508318 20.9118C0.847196 19.4412 1.47412 17.5588 2.38909 15.2647L8.38724 0H15.5037L11.0813 15.3529ZM25.8225 15.3529C26.602 16.2941 27.195 17.5 27.6016 18.9706C28.0083 20.3824 28.2116 21.9706 28.2116 23.7353C28.2116 27.3824 27.5169 30.3529 26.1275 32.6471C24.7381 34.8824 23.0268 36 20.9935 36C19.1297 36 17.6217 35.0294 16.4695 33.0882C15.3173 31.1471 14.7412 28.6176 14.7412 25.5C14.7412 23.9118 14.9107 22.3824 15.2495 20.9118C15.5884 19.4412 16.2153 17.5588 17.1303 15.2647L23.1285 0H30.2449L25.8225 15.3529Z" fill="#333333"/>
</svg>
